<svg xmlns="http://www.w3.org/2000/svg" xmlns:xlink="http://www.w3.org/1999/xlink" viewBox="0 0 179 25"><g id="ss11996168903_1"><path d="M 0 0 L 179 0 L 179 25 L 0 25 Z" fill="transparent"></path><path d="M 0 0 L 26.986 0 L 26.986 25 L 0 25 Z" fill="rgb(255,255,255)"></path><path d="M 13.198 15.684 L 6.246 9.552 L 6.246 18.396 M 13.434 15.684 L 20.386 9.552 L 20.386 18.396" fill="transparent" stroke-width="3.07" stroke="rgb(9,9,9)" stroke-linecap="square" stroke-miterlimit="10"></path><path d="M 36.086 21.108 L 36.086 5.348 L 41.45 5.348 C 42.526 5.348 43.458 5.539 44.247 5.921 C 45.042 6.297 45.656 6.841 46.089 7.554 C 46.528 8.261 46.748 9.115 46.748 10.114 C 46.748 10.904 46.608 11.617 46.328 12.254 C 46.048 12.884 45.647 13.416 45.125 13.849 C 44.603 14.282 43.97 14.604 43.225 14.814 L 48.38 21.108 L 44.457 21.108 L 39.913 15.167 L 39.178 15.167 L 39.178 21.108 Z M 39.178 12.588 L 40.496 12.588 C 41.138 12.588 41.682 12.496 42.128 12.311 C 42.573 12.127 42.914 11.856 43.149 11.499 C 43.391 11.136 43.512 10.703 43.512 10.2 C 43.512 9.436 43.248 8.85 42.72 8.443 C 42.198 8.029 41.456 7.822 40.496 7.822 L 39.178 7.822 Z M 50.497 21.108 L 50.497 5.348 L 59.259 5.348 L 59.259 8.061 L 53.589 8.061 L 53.589 11.853 L 59.03 11.853 L 59.03 14.565 L 53.589 14.565 L 53.589 18.396 L 59.259 18.396 L 59.259 21.108 Z M 61.189 21.108 L 67.517 5.348 L 70.39 5.348 L 76.709 21.108 L 73.378 21.108 L 72.042 17.517 L 65.856 17.517 L 64.52 21.108 Z M 66.916 14.804 L 70.992 14.804 L 68.949 9.522 Z M 86.131 21.414 C 84.941 21.414 83.824 21.204 82.78 20.784 C 81.737 20.363 80.817 19.781 80.022 19.036 C 79.226 18.284 78.606 17.415 78.161 16.428 C 77.715 15.441 77.492 14.381 77.492 13.247 C 77.492 12.107 77.715 11.044 78.161 10.057 C 78.612 9.064 79.233 8.194 80.022 7.449 C 80.817 6.698 81.734 6.112 82.771 5.692 C 83.814 5.271 84.928 5.061 86.112 5.061 C 87.079 5.061 87.998 5.198 88.87 5.472 C 89.748 5.746 90.499 6.106 91.123 6.551 L 89.786 9.178 C 89.36 8.841 88.842 8.576 88.231 8.385 C 87.62 8.194 86.98 8.099 86.312 8.099 C 85.529 8.099 84.804 8.229 84.136 8.49 C 83.474 8.752 82.895 9.115 82.399 9.579 C 81.909 10.044 81.527 10.589 81.253 11.213 C 80.98 11.837 80.843 12.512 80.843 13.238 C 80.843 13.964 80.98 14.639 81.253 15.263 C 81.527 15.887 81.909 16.431 82.399 16.896 C 82.895 17.361 83.474 17.724 84.136 17.985 C 84.804 18.246 85.529 18.377 86.312 18.377 C 86.98 18.377 87.62 18.281 88.231 18.09 C 88.842 17.899 89.36 17.635 89.786 17.297 L 91.123 19.924 C 90.525 20.357 89.79 20.714 88.918 20.994 C 88.046 21.274 87.117 21.414 86.131 21.414 Z M 93.636 21.108 L 93.636 5.348 L 96.729 5.348 L 96.729 11.853 L 102.618 11.853 L 102.618 5.348 L 105.701 5.348 L 105.701 21.108 L 102.618 21.108 L 102.618 14.565 L 96.729 14.565 L 96.729 21.108 Z M 110.004 21.108 L 110.004 5.348 L 113.097 5.348 L 113.097 21.108 Z M 117.405 21.108 L 117.405 5.348 L 120.498 5.348 L 127.284 15.95 L 127.284 5.348 L 130.378 5.348 L 130.378 21.108 L 127.284 21.108 L 120.498 10.506 L 120.498 21.108 Z M 133.848 21.108 L 133.848 5.348 L 138.363 5.348 C 139.877 5.348 141.064 5.679 141.923 6.341 C 142.782 7.004 143.212 7.994 143.212 9.312 C 143.212 10.948 142.537 12.104 141.188 12.779 C 142.289 12.951 143.132 13.375 143.717 14.05 C 144.309 14.718 144.605 15.597 144.605 16.686 C 144.605 17.603 144.398 18.393 143.985 19.055 C 143.571 19.717 142.982 20.227 142.218 20.583 C 141.455 20.933 140.552 21.108 139.508 21.108 Z M 136.931 11.729 L 137.647 11.729 C 138.48 11.729 139.12 11.557 139.566 11.213 C 140.011 10.862 140.234 10.363 140.234 9.713 C 140.234 9.057 140.017 8.567 139.585 8.242 C 139.152 7.911 138.506 7.745 137.647 7.745 L 136.931 7.745 Z M 136.931 18.701 L 138.458 18.701 C 139.426 18.701 140.15 18.523 140.635 18.167 C 141.125 17.81 141.37 17.285 141.37 16.59 C 141.37 15.884 141.118 15.342 140.616 14.967 C 140.118 14.585 139.4 14.394 138.458 14.394 L 136.931 14.394 Z M 154.105 21.414 C 153.003 21.414 151.973 21.204 151.012 20.784 C 150.051 20.363 149.208 19.781 148.483 19.036 C 147.757 18.284 147.188 17.415 146.774 16.428 C 146.366 15.435 146.163 14.371 146.163 13.238 C 146.163 12.104 146.366 11.044 146.774 10.057 C 147.188 9.064 147.757 8.194 148.483 7.449 C 149.208 6.698 150.051 6.112 151.012 5.692 C 151.973 5.271 153.003 5.061 154.105 5.061 C 155.206 5.061 156.237 5.271 157.197 5.692 C 158.158 6.112 159.001 6.698 159.727 7.449 C 160.452 8.194 161.019 9.064 161.425 10.057 C 161.839 11.044 162.046 12.104 162.046 13.238 C 162.046 14.371 161.839 15.435 161.425 16.428 C 161.019 17.415 160.452 18.284 159.727 19.036 C 159.001 19.781 158.158 20.363 157.197 20.784 C 156.237 21.204 155.206 21.414 154.105 21.414 Z M 154.096 18.434 C 154.77 18.434 155.387 18.307 155.947 18.052 C 156.507 17.797 156.993 17.437 157.407 16.973 C 157.82 16.508 158.142 15.96 158.371 15.33 C 158.601 14.693 158.715 13.996 158.715 13.238 C 158.715 12.48 158.601 11.786 158.371 11.155 C 158.142 10.519 157.82 9.968 157.407 9.503 C 156.993 9.038 156.507 8.678 155.947 8.424 C 155.387 8.169 154.77 8.042 154.096 8.042 C 153.433 8.042 152.819 8.169 152.253 8.424 C 151.693 8.678 151.206 9.038 150.792 9.503 C 150.379 9.968 150.057 10.519 149.829 11.155 C 149.606 11.786 149.494 12.48 149.494 13.238 C 149.494 13.996 149.606 14.693 149.829 15.33 C 150.057 15.96 150.379 16.508 150.792 16.973 C 151.206 17.437 151.693 17.797 152.253 18.052 C 152.819 18.307 153.433 18.434 154.096 18.434 Z M 163.126 21.108 L 169.1 12.617 L 164.099 5.348 L 167.783 5.348 L 171 10.047 L 174.217 5.348 L 177.901 5.348 L 172.899 12.617 L 178.875 21.108 L 175.046 21.108 L 171 15.301 L 166.953 21.108 Z" fill="rgb(255,255,255)"></path></g></svg>